Results
version=1
nRows=9
nColumns=24
inDegrees=yes
endheader
time	pelvis_tilt	pelvis_list	pelvis_rotation	pelvis_tx	pelvis_ty	pelvis_tz	hip_flexion_r	hip_adduction_r	hip_rotation_r	knee_angle_r	ankle_angle_r	subtalar_angle_r	mtp_angle_r	hip_flexion_l	hip_adduction_l	hip_rotation_l	knee_angle_l	ankle_angle_l	subtalar_angle_l	mtp_angle_l	lumbar_extension	lumbar_bending	lumbar_rotation
      0.43000000	     -5.61339943	      6.17620477	     -2.30827045	     -0.80266626	      1.02065457	      0.25242324	     34.64287355	     -2.97945150	      0.54578628	    -11.07914364	      1.97521791	     -2.83978271	     13.50113036	    -14.02576483	      8.52822522	      7.40479867	     -3.02802902	     14.08635806	      0.55769430	      6.82218873	    -12.61341390	     -6.60114472	     -4.79412584
      0.43416667	     -5.68370100	      6.13861715	     -2.23568023	     -0.79615367	      1.01991878	      0.25258441	     34.78659387	     -2.90891255	      0.67209737	    -11.85353435	      1.65838975	     -3.19130557	     13.49955899	    -13.98116106	      8.48391599	      7.25861430	     -3.77173738	     14.21331582	      0.90893782	      6.90695874	    -12.45340347	     -6.46240047	     -4.63449751
      0.43833333	     -5.72013136	      6.07262582	     -2.14586348	     -0.78964744	      1.01931286	      0.25276064	     34.86920744	     -2.82112053	      0.81779713	    -12.61068938	      1.27281758	     -3.64984476	     13.49697136	    -13.88470869	      8.39926616	      6.82198409	     -4.69863392	     14.49847320	      1.75144337	      7.07014734	    -12.35787103	     -6.25375151	     -4.68713118
      0.44250000	     -5.74237244	      6.00019829	     -2.05768564	     -0.78312065	      1.01879017	      0.25293330	     34.94207087	     -2.73544393	      0.93112810	    -13.40476316	      0.92065530	     -3.98951716	     13.49289721	    -13.76621179	      8.30338720	      6.29988466	     -5.70371139	     14.73933121	      2.67512162	      7.33090291	    -12.29660862	     -6.04006545	     -4.64722051
      0.44666667	     -5.77622670	      5.92773731	     -1.96414754	     -0.77657507	      1.01830128	      0.25312675	     35.03231863	     -2.65203538	      1.04104578	    -14.23107779	      0.53370842	     -4.37427648	     13.47734336	    -13.61908331	      8.19756846	      5.79428067	     -6.73596296	     14.95199492	      3.57207731	      7.64233030	    -12.20679426	     -5.82860038	     -4.64788269
      0.45083333	     -5.79423819	      5.84563986	     -1.86335482	     -0.77000957	      1.01788211	      0.25332166	     35.11674315	     -2.57178801	      1.09729699	    -15.10496323	      0.19621585	     -4.70825698	     13.43988699	    -13.45958912	      8.06966255	      5.23569004	     -7.82923953	     15.18341544	      4.58812362	      8.18697058	    -12.13381263	     -5.61459572	     -4.61693578
      0.45500000	     -5.82685388	      5.76148617	     -1.77744387	     -0.76344734	      1.01750885	      0.25357930	     35.20791883	     -2.47707572	      1.21118720	    -15.96278113	     -0.22702921	     -5.08294020	     13.39506974	    -13.25206646	      7.93165960	      4.63115501	     -8.98088984	     15.32218463	      5.56612581	      8.59451584	    -12.04072729	     -5.39322200	     -4.63548482
      0.45916667	     -5.86692156	      5.67818772	     -1.67713830	     -0.75684728	      1.01716981	      0.25382306	     35.31860963	     -2.40016147	      1.25887763	    -16.86987717	     -0.50712448	     -5.30440695	     13.11821469	    -13.00836437	      7.77924985	      4.01011474	    -10.18295541	     15.38670282	      6.56523857	     10.81426090	    -11.92762426	     -5.20195391	     -4.54428076
      0.46333333	     -5.86647930	      5.57456405	     -1.57822652	     -0.75028182	      1.01696320	      0.25410121	     35.37247494	     -2.30288980	      1.32929927	    -17.75381435	     -0.86849019	     -5.69821930	     13.08207057	    -12.76821910	      7.59188158	      3.34089716	    -11.46296074	     15.46056912	      7.60572767	     10.98516200	    -11.88637249	     -4.93118687	     -4.62740963
